<svg xmlns="http://www.w3.org/2000/svg" xmlns:xlink="http://www.w3.org/1999/xlink" x="0px" y="0px" viewBox="0 0 200 200" style="enable-background:new 0 0 200 200;" xml:space="preserve"><style type="text/css">	.st0{display:none;}	.st1{display:inline;fill:#222221;}	.st2{display:none;fill:#FFFFFF;}	.st3{display:none;fill:#222221;}	.st4{fill:#FFFFFF;}</style><g id="Vrstva_2" class="st0">	<rect x="0" y="0" class="st1" width="200" height="200"></rect></g><g id="Vrstva_1">			<image style="display:none;overflow:visible;" width="151" height="151" transform="matrix(0.9999 0 0 0.9999 24.5094 24.5094)">	</image>	<image style="display:none;overflow:visible;opacity:0.99;" width="200" height="200">	</image>			<image style="display:none;overflow:visible;opacity:0.98;" width="79" height="66" transform="matrix(0.9999 0 0 0.9999 60.5049 67.0041)">	</image>	<path class="st2" d="M133.9,106.3H66.1c-3.1,0-5.6-2.5-5.6-5.6v0c0-3.1,2.5-5.6,5.6-5.6h67.9c3.1,0,5.6,2.5,5.6,5.6v0  C139.5,103.8,137,106.3,133.9,106.3z"></path>	<path class="st2" d="M130.1,104.3L101.8,76c-1.9-1.9-1.9-5,0-6.9l1-1c1.9-1.9,5-1.9,6.9,0L138,96.5c1.9,1.9,1.9,5,0,6.9l-1,1  C135.1,106.2,132,106.2,130.1,104.3z"></path>	<path class="st2" d="M138,104.9l-28.3,28.3c-1.9,1.9-5,1.9-6.9,0l-1-1c-1.9-1.9-1.9-5,0-6.9L130.1,97c1.9-1.9,5-1.9,6.9,0l1,1  C139.9,99.9,139.9,103,138,104.9z"></path>	<path class="st2" d="M100,175L100,175c-41.3,0-75-33.7-75-75v0c0-41.2,33.7-75,75-75h0c41.2,0,75,33.7,75,75v0  C175,141.3,141.3,175,100,175z"></path>	<path class="st3" d="M133.9,105.7H66.1c-3.1,0-5.6-2.5-5.6-5.6v0c0-3.1,2.5-5.6,5.6-5.6h67.9c3.1,0,5.6,2.5,5.6,5.6v0  C139.5,103.2,137,105.7,133.9,105.7z"></path>	<path class="st3" d="M130.1,103.6l-28.3-28.3c-1.9-1.9-1.9-5,0-6.9l1-1c1.9-1.9,5-1.9,6.9,0L138,95.8c1.9,1.9,1.9,5,0,6.9l-1,1  C135.1,105.5,132,105.5,130.1,103.6z"></path>	<path class="st3" d="M138,104.2l-28.3,28.3c-1.9,1.9-5,1.9-6.9,0l-1-1c-1.9-1.9-1.9-5,0-6.9l28.3-28.3c1.9-1.9,5-1.9,6.9,0l1,1  C139.9,99.2,139.9,102.3,138,104.2z"></path>	<path class="st4" d="M100,25.1L100,25.1c-41.3,0-75,33.8-75,75v0c0,41.3,33.7,75,75,75h0c41.3,0,75-33.7,75-75v0  C175,58.9,141.3,25.1,100,25.1z M139.4,101.4c-0.1,1.1-0.6,2.1-1.4,2.9l-28.3,28.3c-1.9,1.9-5,1.9-6.9,0l-1-1c-1.9-1.9-1.9-5,0-6.9  l19-19H66.1c-3.1,0-5.6-2.5-5.6-5.6c0-3.1,2.5-5.6,5.6-5.6h55l-19.2-19.2c-1.9-1.9-1.9-5,0-6.9l1-1c1.9-1.9,5-1.9,6.9,0L138,95.9  c0.9,0.9,1.3,2.1,1.4,3.2c0.1,0.4,0.1,0.7,0.1,1.1C139.5,100.6,139.4,101,139.4,101.4z"></path></g></svg>